<svg width="21" height="21" viewBox="0 0 21 21" fill="none" xmlns="http://www.w3.org/2000/svg">
<path d="M2.5 8.5C2.5 4.729 2.5 2.843 3.672 1.672C4.844 0.501 6.729 0.5 10.5 0.5C14.271 0.5 16.157 0.5 17.328 1.672C18.499 2.844 18.5 4.729 18.5 8.5V10.5C18.5 14.271 18.5 16.157 17.328 17.328C16.156 18.499 14.271 18.5 10.5 18.5C6.729 18.5 4.843 18.5 3.672 17.328C2.501 16.156 2.5 14.271 2.5 10.5V8.5Z" stroke="black"/>
<path d="M14 14.5H15.5M5.5 14.5H7M4.5 18V19.5C4.5 19.7652 4.60536 20.0196 4.79289 20.2071C4.98043 20.3946 5.23478 20.5 5.5 20.5H7C7.26522 20.5 7.51957 20.3946 7.70711 20.2071C7.89464 20.0196 8 19.7652 8 19.5V18.5M16.5 18V19.5C16.5 19.7652 16.3946 20.0196 16.2071 20.2071C16.0196 20.3946 15.7652 20.5 15.5 20.5H14C13.7348 20.5 13.4804 20.3946 13.2929 20.2071C13.1054 20.0196 13 19.7652 13 19.5V18.5M18.5 7.5H19.5C19.7652 7.5 20.0196 7.60536 20.2071 7.79289C20.3946 7.98043 20.5 8.23478 20.5 8.5V9.5C20.5 9.65525 20.4639 9.80836 20.3944 9.94721C20.325 10.0861 20.2242 10.2069 20.1 10.3L18.5 11.5H2.5L0.9 10.3C0.775804 10.2069 0.675 10.0861 0.605573 9.94721C0.536145 9.80836 0.5 9.65525 0.5 9.5V8.5C0.5 8.23478 0.605357 7.98043 0.792893 7.79289C0.98043 7.60536 1.23478 7.5 1.5 7.5H2.5" stroke="black" stroke-linecap="round" stroke-linejoin="round"/>
<path d="M18 3.5H3" stroke="black" stroke-linecap="round"/>
</svg>
